<?xml version="1.0" standalone="no"?>
<!DOCTYPE svg PUBLIC "-//W3C//DTD SVG 20010904//EN"
 "http://www.w3.org/TR/2001/REC-SVG-20010904/DTD/svg10.dtd">
<svg version="1.0" xmlns="http://www.w3.org/2000/svg"
 width="340.000000pt" height="340.000000pt" viewBox="0 0 340.000000 340.000000"
 preserveAspectRatio="xMidYMid meet">
<metadata>
Created by potrace 1.11, written by Peter Selinger 2001-2013
</metadata>
<g transform="translate(0.000000,340.000000) scale(0.100000,-0.100000)"
fill="#000000" stroke="none">
<path d="M1299 2766 c-3 -3 -32 -8 -64 -11 -33 -3 -67 -7 -75 -10 -8 -2 -31
-6 -50 -9 -95 -14 -330 -79 -410 -113 -54 -23 -173 -84 -188 -96 -8 -6 -11
-21 -6 -41 9 -45 81 -176 116 -213 l31 -32 46 33 c80 57 288 159 350 171 22 4
21 -2 -39 -191 -38 -119 -176 -465 -303 -757 -8 -17 -45 -104 -82 -192 -37
-88 -78 -182 -90 -210 -12 -27 -32 -72 -44 -100 -12 -27 -39 -85 -60 -128
l-38 -78 29 -45 c58 -92 154 -168 239 -189 23 -6 25 -1 56 127 29 121 109 384
132 433 5 11 35 84 65 161 31 78 72 176 91 218 l35 76 45 -34 c29 -22 61 -37
91 -42 44 -6 238 1 252 10 4 2 23 7 42 10 103 16 289 97 380 166 204 153 307
326 315 531 11 261 -142 456 -420 534 -44 13 -112 19 -251 21 -104 3 -192 2
-195 0z m585 -244 c74 -35 114 -72 149 -137 17 -32 21 -58 21 -130 0 -116 -21
-164 -112 -254 -151 -151 -392 -237 -720 -256 -96 -6 -101 -5 -94 12 46 110
295 610 337 678 37 59 39 66 27 86 -7 10 -12 21 -12 23 0 9 74 13 205 12 125
-2 133 -3 199 -34z"/>
<path d="M2350 1802 c-152 -21 -340 -141 -431 -277 -93 -138 -130 -333 -94
-500 36 -172 170 -347 330 -431 101 -54 163 -68 300 -68 115 0 139 3 203 26
128 46 239 127 321 235 141 186 158 491 37 696 -137 235 -393 357 -666 319z
m225 -137 c121 -32 220 -97 290 -190 76 -101 106 -200 101 -335 -10 -287 -259
-508 -549 -487 -200 14 -362 135 -442 328 -33 80 -42 223 -19 309 74 276 353
445 619 375z"/>
<path d="M2303 1387 c-4 -7 -8 -108 -8 -225 -1 -181 2 -215 15 -227 19 -17 9
-21 232 107 167 96 188 117 146 146 -46 33 -337 199 -357 205 -12 3 -24 0 -28
-6z"/>
</g>
</svg>
