<?xml version="1.0" encoding="utf-8"?>
<!-- Generator: Adobe Illustrator 17.0.0, SVG Export Plug-In . SVG Version: 6.00 Build 0)  -->
<!DOCTYPE svg PUBLIC "-//W3C//DTD SVG 1.1//EN" "http://www.w3.org/Graphics/SVG/1.1/DTD/svg11.dtd">
<svg version="1.1" id="Calque_1" xmlns="http://www.w3.org/2000/svg" xmlns:xlink="http://www.w3.org/1999/xlink" x="0px" y="0px"
	 width="424.722px" height="208.08px" viewBox="0 0 424.722 208.08" enable-background="new 0 0 424.722 208.08"
	 xml:space="preserve">
<text transform="matrix(1 0 0 1 -1.754761e-004 145.6888)" fill="#47A0D9" font-family="'KaushanScript-Regular'" font-size="170">Pide</text>
<g>
	<path fill="#47A0D9" d="M393.652,84.657c-13.342-23.111-42.891-31.038-65.999-17.684c-23.108,13.33-31.035,42.891-17.684,66.002
		c13.33,23.108,42.894,31.023,66.002,17.681C399.079,137.314,406.994,107.765,393.652,84.657L393.652,84.657z M371.133,142.282
		c-18.484,10.675-42.124,4.34-52.799-14.145c-10.675-18.485-4.343-42.124,14.145-52.799c18.485-10.675,42.136-4.342,52.799,14.142
		C395.953,107.967,389.618,131.607,371.133,142.282L371.133,142.282z M369.201,106.844"/>
	<g id="XMLID_1_">
		<g>
			<path fill="#47A0D9" d="M369.203,106.846c2.31,1.35,2.3,3.52-0.01,4.85l-25.11,14.5c-2.31,1.34-4.2,0.26-4.21-2.42l-0.13-29.29
				c-0.01-2.67,1.85-3.74,4.15-2.4L369.203,106.846z"/>
		</g>
		<g>
		</g>
	</g>
</g>
</svg>
